<?xml version="1.0" encoding="UTF-8" standalone="no"?>
<svg xmlns="http://www.w3.org/2000/svg"
    contentScriptType="application/ecmascript" contentStyleType="text/css" height="272px"
    preserveAspectRatio="none" style="width:657px;height:272px;" version="1.1" viewBox="0 0 657 272"
    width="657px" zoomAndPan="magnify"><defs><filter height="300%" id="f3sk8mdd2kwxo" width="300%" x="-1" y="-1"><feGaussianBlur result="blurOut" stdDeviation="2.0"/><feColorMatrix in="blurOut" result="blurOut2" type="matrix" values="0 0 0 0 0 0 0 0 0 0 0 0 0 0 0 0 0 0 .4 0"/><feOffset dx="4.0" dy="4.0" in="blurOut2" result="blurOut3"/><feBlend in="SourceGraphic" in2="blurOut3" mode="normal"/></filter></defs><g><line style="stroke: #A80036; stroke-width: 1.0; stroke-dasharray: 5.0,5.0;" x1="34" x2="34" y1="38.4883" y2="231.7305"/><line style="stroke: #A80036; stroke-width: 1.0; stroke-dasharray: 5.0,5.0;" x1="152" x2="152" y1="38.4883" y2="231.7305"/><line style="stroke: #A80036; stroke-width: 1.0; stroke-dasharray: 5.0,5.0;" x1="308" x2="308" y1="38.4883" y2="231.7305"/><line style="stroke: #A80036; stroke-width: 1.0; stroke-dasharray: 5.0,5.0;" x1="452" x2="452" y1="38.4883" y2="231.7305"/><line style="stroke: #A80036; stroke-width: 1.0; stroke-dasharray: 5.0,5.0;" x1="575" x2="575" y1="38.4883" y2="231.7305"/><rect fill="#FEFECE" filter="url(#f3sk8mdd2kwxo)" height="30.4883" style="stroke: #A80036; stroke-width: 1.5;" width="49" x="8" y="3"/><text fill="#000000" font-family="sans-serif" font-size="14" lengthAdjust="spacingAndGlyphs" textLength="35" x="15" y="23.5352">login</text><rect fill="#FEFECE" filter="url(#f3sk8mdd2kwxo)" height="30.4883" style="stroke: #A80036; stroke-width: 1.5;" width="49" x="8" y="230.7305"/><text fill="#000000" font-family="sans-serif" font-size="14" lengthAdjust="spacingAndGlyphs" textLength="35" x="15" y="251.2656">login</text><rect fill="#FEFECE" filter="url(#f3sk8mdd2kwxo)" height="30.4883" style="stroke: #A80036; stroke-width: 1.5;" width="95" x="103" y="3"/><text fill="#000000" font-family="sans-serif" font-size="14" lengthAdjust="spacingAndGlyphs" textLength="81" x="110" y="23.5352">AuthService</text><rect fill="#FEFECE" filter="url(#f3sk8mdd2kwxo)" height="30.4883" style="stroke: #A80036; stroke-width: 1.5;" width="95" x="103" y="230.7305"/><text fill="#000000" font-family="sans-serif" font-size="14" lengthAdjust="spacingAndGlyphs" textLength="81" x="110" y="251.2656">AuthService</text><rect fill="#FEFECE" filter="url(#f3sk8mdd2kwxo)" height="30.4883" style="stroke: #A80036; stroke-width: 1.5;" width="188" x="212" y="3"/><text fill="#000000" font-family="sans-serif" font-size="14" lengthAdjust="spacingAndGlyphs" textLength="174" x="219" y="23.5352">UserAuthorizationService</text><rect fill="#FEFECE" filter="url(#f3sk8mdd2kwxo)" height="30.4883" style="stroke: #A80036; stroke-width: 1.5;" width="188" x="212" y="230.7305"/><text fill="#000000" font-family="sans-serif" font-size="14" lengthAdjust="spacingAndGlyphs" textLength="174" x="219" y="251.2656">UserAuthorizationService</text><rect fill="#FEFECE" filter="url(#f3sk8mdd2kwxo)" height="30.4883" style="stroke: #A80036; stroke-width: 1.5;" width="72" x="414" y="3"/><text fill="#000000" font-family="sans-serif" font-size="14" lengthAdjust="spacingAndGlyphs" textLength="58" x="421" y="23.5352">UserDao</text><rect fill="#FEFECE" filter="url(#f3sk8mdd2kwxo)" height="30.4883" style="stroke: #A80036; stroke-width: 1.5;" width="72" x="414" y="230.7305"/><text fill="#000000" font-family="sans-serif" font-size="14" lengthAdjust="spacingAndGlyphs" textLength="58" x="421" y="251.2656">UserDao</text><rect fill="#FEFECE" filter="url(#f3sk8mdd2kwxo)" height="30.4883" style="stroke: #A80036; stroke-width: 1.5;" width="146" x="500" y="3"/><text fill="#000000" font-family="sans-serif" font-size="14" lengthAdjust="spacingAndGlyphs" textLength="132" x="507" y="23.5352">PasswordProcessor</text><rect fill="#FEFECE" filter="url(#f3sk8mdd2kwxo)" height="30.4883" style="stroke: #A80036; stroke-width: 1.5;" width="146" x="500" y="230.7305"/><text fill="#000000" font-family="sans-serif" font-size="14" lengthAdjust="spacingAndGlyphs" textLength="132" x="507" y="251.2656">PasswordProcessor</text><polygon fill="#A80036" points="140.5,50.4883,150.5,54.4883,140.5,58.4883,144.5,54.4883" style="stroke: #A80036; stroke-width: 1.0;"/><line style="stroke: #A80036; stroke-width: 1.0;" x1="34.5" x2="146.5" y1="54.4883" y2="54.4883"/><polygon fill="#A80036" points="296,79.7988,306,83.7988,296,87.7988,300,83.7988" style="stroke: #A80036; stroke-width: 1.0;"/><line style="stroke: #A80036; stroke-width: 1.0;" x1="152.5" x2="302" y1="83.7988" y2="83.7988"/><text fill="#000000" font-family="sans-serif" font-size="13" lengthAdjust="spacingAndGlyphs" textLength="32" x="159.5" y="79.0566">login</text><polygon fill="#A80036" points="440,109.1094,450,113.1094,440,117.1094,444,113.1094" style="stroke: #A80036; stroke-width: 1.0;"/><line style="stroke: #A80036; stroke-width: 1.0;" x1="308" x2="446" y1="113.1094" y2="113.1094"/><text fill="#000000" font-family="sans-serif" font-size="13" lengthAdjust="spacingAndGlyphs" textLength="63" x="315" y="108.3672">queryUser</text><polygon fill="#A80036" points="319,123.1094,309,127.1094,319,131.1094,315,127.1094" style="stroke: #A80036; stroke-width: 1.0;"/><line style="stroke: #A80036; stroke-width: 1.0;" x1="313" x2="451" y1="127.1094" y2="127.1094"/><polygon fill="#A80036" points="163.5,137.1094,153.5,141.1094,163.5,145.1094,159.5,141.1094" style="stroke: #A80036; stroke-width: 1.0;"/><line style="stroke: #A80036; stroke-width: 1.0;" x1="157.5" x2="307" y1="141.1094" y2="141.1094"/><polygon fill="#A80036" points="563,166.4199,573,170.4199,563,174.4199,567,170.4199" style="stroke: #A80036; stroke-width: 1.0;"/><line style="stroke: #A80036; stroke-width: 1.0;" x1="152.5" x2="569" y1="170.4199" y2="170.4199"/><text fill="#000000" font-family="sans-serif" font-size="13" lengthAdjust="spacingAndGlyphs" textLength="101" x="159.5" y="165.6777">check password</text><polygon fill="#A80036" points="163.5,180.4199,153.5,184.4199,163.5,188.4199,159.5,184.4199" style="stroke: #A80036; stroke-width: 1.0;"/><line style="stroke: #A80036; stroke-width: 1.0;" x1="157.5" x2="574" y1="184.4199" y2="184.4199"/><polygon fill="#A80036" points="45.5,209.7305,35.5,213.7305,45.5,217.7305,41.5,213.7305" style="stroke: #A80036; stroke-width: 1.0;"/><line style="stroke: #A80036; stroke-width: 1.0;" x1="39.5" x2="151.5" y1="213.7305" y2="213.7305"/><text fill="#000000" font-family="sans-serif" font-size="13" lengthAdjust="spacingAndGlyphs" textLength="94" x="51.5" y="208.9883">return userInfo</text><!--
@startuml
login -> AuthService
AuthService -> UserAuthorizationService: login
UserAuthorizationService -> UserDao: queryUser
UserDao -> UserAuthorizationService
UserAuthorizationService -> AuthService
AuthService -> PasswordProcessor: check password
PasswordProcessor -> AuthService
AuthService -> login: return userInfo
@enduml

PlantUML version 1.2019.03(Sun Mar 10 19:04:44 CST 2019)
(GPL source distribution)
Java Runtime: Java(TM) SE Runtime Environment
JVM: Java HotSpot(TM) 64-Bit Server VM
Java Version: 11.0.1+13-LTS
Operating System: Mac OS X
OS Version: 10.14.3
Default Encoding: UTF-8
Language: en
Country: US
--></g></svg>